<svg xmlns="http://www.w3.org/2000/svg">
  <symbol id="settings" viewBox="0 0 24 24"><path d="M4 7h16M4 17h16" stroke="currentColor" stroke-width="2"/><circle cx="9" cy="7" r="3" fill="currentColor"/><circle cx="15" cy="17" r="3" fill="currentColor"/></symbol>
  <symbol id="search" viewBox="0 0 24 24"><circle cx="10" cy="10" r="6" fill="none" stroke="currentColor" stroke-width="2"/><path d="m15 15 6 6" stroke="currentColor" stroke-width="2"/></symbol>
  <symbol id="home" viewBox="0 0 24 24"><path d="m3 11 9-8 9 8M5 9v12h5v-7h4v7h5V9" fill="none" stroke="currentColor" stroke-width="1.8" stroke-linejoin="round"/></symbol>
  <symbol id="feed" viewBox="0 0 24 24"><rect x="3" y="4" width="18" height="12" rx="3" fill="none" stroke="currentColor" stroke-width="1.8"/><path d="M8 20h8M10 8l5 3-5 3z" fill="currentColor" stroke="currentColor" stroke-linecap="round"/></symbol>
  <symbol id="download" viewBox="0 0 24 24"><path d="M12 3v12m-5-5 5 5 5-5M4 16v4h16v-4" fill="none" stroke="currentColor" stroke-width="1.8" stroke-linecap="round" stroke-linejoin="round"/></symbol>
  <symbol id="history" viewBox="0 0 24 24"><circle cx="12" cy="12" r="9" fill="none" stroke="currentColor" stroke-width="1.8"/><path d="M12 6v6l4 2" fill="none" stroke="currentColor" stroke-width="1.8" stroke-linecap="round"/></symbol>
  <symbol id="unwatched" viewBox="0 0 24 24"><rect x="3" y="5" width="18" height="14" rx="3" fill="none" stroke="currentColor" stroke-width="1.8"/><circle cx="12" cy="12" r="3" fill="currentColor"/></symbol>
  <symbol id="back" viewBox="0 0 24 24"><path d="M14.5 5 7.5 12l7 7" fill="none" stroke="currentColor" stroke-width="2.4" stroke-linecap="round" stroke-linejoin="round"/></symbol>
  <symbol id="play" viewBox="0 0 24 24"><path d="M8 5.5c0-.8.9-1.2 1.5-.8l10 6.5a1 1 0 0 1 0 1.6l-10 6.5c-.6.4-1.5 0-1.5-.8z" fill="currentColor"/></symbol>
  <symbol id="pause" viewBox="0 0 24 24"><rect x="6" y="5" width="4" height="14" rx="1" fill="currentColor"/><rect x="14" y="5" width="4" height="14" rx="1" fill="currentColor"/></symbol>
  <symbol id="restart" viewBox="0 0 24 24"><path d="M4 10a8 8 0 1 1 0 5M4 4v6h6" fill="none" stroke="currentColor" stroke-width="2" stroke-linecap="round" stroke-linejoin="round"/></symbol>
</svg>
